<?xml version="1.0" encoding="UTF-8" standalone="no"?>
<!-- Created with Inkscape (http://www.inkscape.org/) -->

<svg
   width="210mm"
   height="130mm"
   viewBox="0 0 210 130"
   version="1.1"
   id="svg51897"
   xmlns="http://www.w3.org/2000/svg"
   xmlns:svg="http://www.w3.org/2000/svg">
  <defs
     id="defs51894" />
  <path
     style="fill:#008afd;fill-opacity:1;stroke-width:2.15513"
     d="M 11.791161,102.98437 45.873977,18.719765 h 10.10221 L 50.99247,47.948466 29.037129,103.24056 Z"
     id="path22974-8-4" />
  <path
     style="fill:#196dd2;fill-opacity:1;stroke-width:2.15513"
     d="m 41.752698,29.123072 6.10722,26.80613 3.165322,-7.778655 z"
     id="path22976-4-3" />
  <path
     style="fill:#196dd2;fill-opacity:1;stroke-width:2.15513"
     d="m 11.795278,102.93757 7.77857,-19.02563 c 0,0 2.500177,-3.083482 4.040867,-4.310253 2.845102,-2.265158 6.180239,-3.853911 9.428746,-5.488793 2.962149,-1.49078 9.142388,-3.92298 9.142388,-3.92298 l -1.818311,4.461751 -14.568161,17.189167 z"
     id="path22978-4-5" />
  <path
     style="fill:#fdac00;fill-opacity:1;stroke-width:2.15513"
     d="m 46.000015,18.603306 9.91727,0.308373 20.310292,48.465568 15.100462,35.913813 -20.810831,-0.0504 -28.739891,-74.408978 z"
     id="path22980-3-4" />
  <path
     style="fill:#e74119;fill-opacity:1;stroke-width:2.15513"
     d="M 45.856332,18.677669 H 56.025846 L 75.783838,66.319535 58.031113,71.434835 41.633718,28.909143 Z"
     id="path22982-2-3" />
  <path
     style="fill:#fd7d00;fill-opacity:1;stroke-width:2.15513"
     d="M 59.6665,75.253035 61.075606,78.86512 76.025747,66.892924 75.798879,66.333315 Z"
     id="path22984-6-22" />
  <path
     style="fill:#fe5959;fill-opacity:1;stroke-width:2.15513"
     d="m 11.559502,103.35005 c 0,0 3.648805,-7.278622 5.657181,-10.817689 1.313233,-2.313808 2.563952,-4.685258 4.175644,-6.802027 1.255592,-1.649167 2.654699,-3.213973 4.242864,-4.545944 1.579174,-1.324409 4.205137,-3.017185 5.993954,-4.040867 13.497342,-6.801607 27.336247,-11.593577 41.204644,-18.628607 l 2.763597,7.430537 c 0,0 -25.234686,13.460539 -36.795746,21.535971 -2.565296,1.784448 -4.301766,3.53579 -5.716082,5.978578 -1.59766,3.167927 -4.007257,9.860548 -4.007257,9.860548 z"
     id="path22986-7-9" />
  <path
     style="fill:#e44064;fill-opacity:1;stroke-width:0.896635"
     d="m 28.356271,79.149378 c 0,0 -0.761271,1.893009 -0.911424,2.892744 -0.290728,1.933173 0.119316,3.9113 0.04201,5.864555 -0.103351,2.54387 -0.336942,6.875213 -0.336942,6.875213 l 7.225431,-4.426292 2.16626,-1.171314 -4.695929,-12.244019 c 0,0 -1.580435,0.957218 -2.357838,1.456161 -0.380635,0.244514 -1.129302,0.752868 -1.129302,0.752868 z"
     id="path22988-6-9" />
  <path
     style="fill:#bc1c24;fill-opacity:0;stroke-width:0.896635"
     d="m 55.278272,64.333089 16.810968,-6.90521 0.540284,1.284833 -16.685855,7.425244 z"
     id="path22990-1-5" />
  <path
     style="fill:#000000;fill-opacity:1;stroke-width:0.896635"
     d="m 76.63426,58.41585 c 1.385495,0.476425 2.286836,2.25247 2.262721,3.63931 -0.04201,2.51631 -2.62924,4.129178 -2.62924,4.129178 l -35.829117,20.221308 -10.92171,-1.638748 5.836743,-9.385893 c 0,0 25.471133,-12.031601 37.21478,-16.817018 2.232472,-0.548686 2.64344,-0.46382 4.065823,-0.147885 z"
     id="path22992-9-7" />
  <path
     style="fill:#1f96b2;fill-opacity:1;stroke-width:2.60796"
     d="m 41.245856,79.038801 c 0.482306,1.027379 0.62599,2.187182 0.636913,3.306484 0.0084,1.320964 -0.288207,2.48354 -1.039059,3.608809 -1.061241,1.591273 -3.115327,2.647473 -4.81743,3.6604 -2.238521,1.332223 -6.683047,3.589566 -6.683047,3.589566 0,0 1.334576,-8.801244 3.734259,-12.521806 1.18896,-1.84335 2.535299,-3.816435 4.858854,-3.913064 0.914617,-0.04201 1.294664,0.566331 1.930737,1.173919 0.385677,0.368872 1.158458,0.625149 1.379109,1.095692 z"
     id="path22994-0-2" />
  <path
     style="fill:#13c9b8;fill-opacity:1;stroke-width:2.60796"
     d="m 41.638423,80.105083 c 0,0 -1.350121,-0.454577 -1.962582,-0.479785 -0.93117,-0.03361 -1.897547,0.154607 -2.737045,0.52852 -0.82765,0.368032 -1.663787,0.889073 -2.12181,1.623876 -0.299971,0.481465 -0.274763,1.088549 -0.29745,1.643537 -0.05041,1.217277 0.474744,2.425562 0.360469,3.639142 -0.07562,0.8479 -0.308373,1.704035 -0.720938,2.465138 -0.389878,0.718417 -0.971082,1.353734 -1.612532,1.897882 -1.08981,0.9247 -3.713,2.250033 -3.713,2.250033 0,0 0.218466,-2.346578 0.189898,-4.927083 0.09663,-2.765697 -0.182336,-4.939687 -0.02521,-7.633879 0.117635,-1.05956 0.39576,-1.630933 0.954865,-2.563112 0.599942,-1.079894 3.132972,-2.391699 4.086073,-2.852915 2.623946,-1.26954 4.428056,0.156287 6.257794,1.922166 0.311734,0.300811 0.751187,1.053931 1.028471,1.654713 0.119316,0.257958 0.307533,0.831851 0.307533,0.831851 z"
     id="path22996-1-9" />
  <path
     style="fill:#f5422a;fill-opacity:1;stroke-width:0.929271"
     d="m 44.186326,71.123941 4.689712,10.680893 -4.302691,2.324227 -4.752478,-10.941203 z"
     id="path22998-0-8" />
  <path
     style="fill:#feae00;fill-opacity:1;stroke-width:0.929271"
     d="m 39.872544,73.127779 4.712399,10.991619 -4.000367,2.239026 -5.010101,-11.178912 z"
     id="path23000-9-02" />
  <path
     d="m 198.68573,85.034763 q 0,4.409002 -1.68239,7.773767 -1.62437,3.364764 -4.64105,5.627278 -3.01669,2.262512 -7.13562,3.364762 -4.11894,1.16027 -8.93403,1.16027 -2.90066,0 -5.56927,-0.46411 -2.61059,-0.40609 -4.69907,-1.04424 -2.08847,-0.69615 -3.48079,-1.39231 -1.39231,-0.696161 -2.03046,-1.276292 -0.63814,-0.638145 -0.98622,-1.914435 -0.34808,-1.334304 -0.34808,-3.886884 0,-1.682382 0.11603,-2.668606 0.11602,-1.044237 0.34807,-1.624369 0.23206,-0.638145 0.58014,-0.812185 0.34808,-0.232052 0.87019,-0.232052 0.63815,0 1.85643,0.754171 1.27629,0.696158 3.13271,1.566356 1.85642,0.870198 4.29297,1.624369 2.49457,0.754171 5.62728,0.754171 1.97245,0 3.48079,-0.406092 1.56636,-0.406092 2.66861,-1.160264 1.16026,-0.754171 1.74039,-1.914435 0.58014,-1.160263 0.58014,-2.668606 0,-1.740395 -1.10225,-2.958672 -1.04424,-1.27629 -2.84265,-2.204501 -1.7404,-0.928211 -4.00291,-1.740396 -2.2045,-0.812184 -4.58304,-1.798408 -2.32053,-0.986224 -4.58304,-2.262514 -2.2045,-1.27629 -4.00291,-3.132712 -1.7404,-1.856422 -2.84265,-4.467015 -1.04424,-2.610593 -1.04424,-6.265424 0,-3.712844 1.45033,-6.787542 1.45033,-3.132712 4.17695,-5.337213 2.72662,-2.204501 6.61351,-3.422778 3.94489,-1.218277 8.818,-1.218277 2.43655,0 4.69907,0.34808 2.32052,0.348079 4.17695,0.870197 1.85642,0.522119 3.13271,1.160264 1.27629,0.580132 1.79841,1.044237 0.58013,0.406092 0.81218,0.870198 0.23205,0.406092 0.34808,1.044237 0.11603,0.580132 0.17404,1.508343 0.11603,0.870198 0.11603,2.204501 0,1.566356 -0.11603,2.55258 -0.058,0.986224 -0.29007,1.566356 -0.17403,0.580132 -0.52211,0.812184 -0.34808,0.17404 -0.81219,0.17404 -0.52212,0 -1.62437,-0.580132 -1.10225,-0.638145 -2.78463,-1.334303 -1.62437,-0.696158 -3.82887,-1.27629 -2.14649,-0.638145 -4.93112,-0.638145 -1.97245,0 -3.42278,0.406092 -1.45033,0.406092 -2.37854,1.160264 -0.92821,0.754171 -1.39232,1.798408 -0.4641,0.986225 -0.4641,2.146488 0,1.798409 1.10225,3.016686 1.10225,1.218276 2.90066,2.146487 1.79841,0.928211 4.06092,1.740396 2.32053,0.812184 4.64106,1.798409 2.37854,0.92821 4.64105,2.2045 2.32053,1.27629 4.11894,3.132712 1.79841,1.856422 2.90066,4.467015 1.10225,2.55258 1.10225,6.091384 z"
     id="path321"
     style="font-weight:bold;font-size:118.811px;font-family:Calibri;-inkscape-font-specification:'Calibri, Bold';fill:#fdac00;stroke-width:0.336539" />
  <path
     d="m 146.89749,102.26312 q 0,6.01771 -1.03161,9.74296 -1.03161,3.72524 -3.15213,6.24695 -2.06322,2.57902 -5.21535,3.83987 -3.15214,1.31817 -7.39319,1.31817 -2.34977,0 -4.0118,-0.34387 -1.66204,-0.28656 -2.40709,-0.63043 -0.74505,-0.34387 -1.03161,-0.85967 -0.28655,-0.5158 -0.40118,-1.20354 -0.11462,-0.63043 -0.17193,-1.4901 -0.0573,-0.80236 -0.0573,-2.12053 0,-1.60472 0.11462,-2.69364 0.0573,-1.03161 0.28656,-1.66203 0.22924,-0.63043 0.5158,-0.91699 0.28656,-0.28656 0.74505,-0.28656 0.28656,0 1.14623,0.11463 0.91699,0.17193 1.94859,0.17193 1.4901,0 2.57902,-0.45849 1.08892,-0.45849 1.77666,-1.4901 0.68774,-0.9743 1.03161,-2.57902 0.34387,-1.54741 0.34387,-4.9861 V 49.536515 q 0,-0.573115 0.34387,-0.974296 0.34386,-0.458492 1.14623,-0.74505 0.80236,-0.343869 2.17783,-0.515803 1.37548,-0.171935 3.49601,-0.171935 2.12052,0 3.496,0.171935 1.37548,0.171934 2.17784,0.515803 0.85967,0.286558 1.20354,0.74505 0.34387,0.401181 0.34387,0.974296 z m 1.08892,-70.149308 q 0,4.355676 -1.77666,6.01771 -1.71935,1.662034 -6.59083,1.662034 -4.81416,0 -6.53351,-1.604723 -1.71934,-1.604722 -1.71934,-5.788464 0,-4.355675 1.77665,-6.01771 1.77666,-1.719345 6.59083,-1.719345 4.87148,0 6.53351,1.662034 1.71935,1.604723 1.71935,5.788464 z"
     id="path318"
     style="font-weight:bold;font-size:117.374px;font-family:Calibri;-inkscape-font-specification:'Calibri, Bold';fill:#e74119;stroke-width:0.332468" />
  <path
     d="m 116.28049,101.26253 q 0,0.57873 -0.34724,1.04172 -0.34723,0.40511 -1.21533,0.69447 -0.81022,0.28937 -2.19918,0.40512 -1.38895,0.17362 -3.53025,0.17362 -2.1413,0 -3.53026,-0.17362 -1.38895,-0.11575 -2.25705,-0.40512 -0.81022,-0.28936 -1.15746,-0.69447 -0.34724,-0.46299 -0.34724,-1.04172 V 49.755521 q 0,-0.578731 0.34724,-0.983842 0.34724,-0.462984 1.15746,-0.75235 0.8681,-0.347238 2.25705,-0.520857 1.38896,-0.173619 3.53026,-0.173619 2.1413,0 3.53025,0.173619 1.38896,0.173619 2.19918,0.520857 0.8681,0.289366 1.21533,0.75235 0.34724,0.405111 0.34724,0.983842 z m 1.09959,-69.100416 q 0,4.398352 -1.79406,6.07667 -1.79407,1.678319 -6.6554,1.678319 -4.91921,0 -6.65541,-1.620446 -1.67831,-1.620445 -1.67831,-5.845178 0,-4.398351 1.73619,-6.07667 1.79406,-1.736191 6.71327,-1.736191 4.86134,0 6.59753,1.678318 1.73619,1.620446 1.73619,5.845178 z"
     id="path315"
     style="font-weight:bold;font-size:118.524px;font-family:Calibri;-inkscape-font-specification:'Calibri, Bold';fill:#008afd;stroke-width:0.335723" />
</svg>
