<svg viewBox="0 0 960 520" xmlns="http://www.w3.org/2000/svg"><g fill="#ed225d"><circle cx="590.77" cy="368.25" r="33.43"/><circle cx="369.23" cy="227.25" r="33.43"/><path d="m317.34 227.25a52 52 0 0 1 51.89-51.89v-132.8a36.92 36.92 0 0 0 -36.92-36.92h-295.39a36.92 36.92 0 0 0 -36.92 36.92v295.44a36.92 36.92 0 0 0 36.92 36.92h295.39a36.92 36.92 0 0 0 36.92-36.92v-58.86a52 52 0 0 1 -51.89-51.89zm-132.72 88.61a88.14 88.14 0 0 1 -45.23-12.44 23 23 0 0 1 -43.39-10.53v-205.26a23 23 0 1 1 45.94 0v62a88.6 88.6 0 1 1 42.67 166.25z"/><circle cx="184.62" cy="227.25" r="42.66"/><path d="m923.08 145.13h-295.39a36.92 36.92 0 0 0 -36.92 36.92v134.3a51.9 51.9 0 0 1 0 103.79v57.3a36.92 36.92 0 0 0 36.92 36.92h295.39a36.92 36.92 0 0 0 36.92-36.92v-295.39a36.92 36.92 0 0 0 -36.92-36.92zm-152.08 311.72a88.91 88.91 0 0 1 -76.73-44.28 23 23 0 1 1 39.77-23 42.67 42.67 0 1 0 4.27-48.73 23 23 0 0 1 -40.33-18l14.11-100.45a23 23 0 0 1 22.75-19.77h83.54a23 23 0 1 1 0 45.94h-63.58l-4.71 33.55a88.61 88.61 0 1 1 20.91 174.74z"/><path d="m537.41 355.24c-12.56-1.77-21.53-7-28.35-16.3-8.33-11.36-12.62-27.4-17.17-44.38-8.68-32.42-19.31-72.09-65.88-78.67a12.33 12.33 0 0 0 -14.12 12.17 12.35 12.35 0 0 0 10.7 12.19c12.56 1.78 21.53 7 28.35 16.31 8.33 11.35 12.62 27.39 17.17 44.37 8.68 32.43 19.31 72.1 65.88 78.68a12.3 12.3 0 1 0 3.42-24.37z"/></g></svg>
